<?xml version="1.0" encoding="UTF-8"?>
<svg width="775px" height="737px" viewBox="0 0 775 737" version="1.1" xmlns="http://www.w3.org/2000/svg" xmlns:xlink="http://www.w3.org/1999/xlink">
    <style>
        path { 
            fill: rgb(255, 76, 0); 
            fill: color(display-P3 0.9882 0.3646 0.0000); 
        }
    </style>
    <title>Group</title>
        <g id="/soon" transform="translate(-761.000000, -274.000000)">
            <g id="Version-2" transform="translate(313.000000, 274.000000)">
                <g id="Group" transform="translate(448.000000, 0.000000)">
                    <path d="M775,531.5 C775,644.995085 682.995085,737 569.5,737 C456.004915,737 364,644.995085 364,531.5 C364,418.004915 456.004915,326 569.5,326 C682.995085,326 775,418.004915 775,531.5" id="Fill-1" transform="translate(569.500000, 531.500000) scale(1, -1) translate(-569.500000, -531.500000) "></path>
                    <path d="M140.524074,339.501781 C55.0380119,254.326561 5.64833751,142.68887 0.0242545025,23.025837 C-0.565684275,10.4548899 9.68351875,0 22.3160744,0 L76.1263568,0 C87.9133335,0 97.7377806,9.13823209 98.3670487,20.8666749 C103.412992,115.164452 142.620323,203.047442 210.050325,270.228338 C241.250221,301.318704 276.953315,326.45668 316.408421,345.140681 C327.046983,350.180032 331.794024,362.696118 327.322288,373.554627 L306.886809,423.156574 C302.08864,434.802726 288.480719,440.284881 277.031974,434.951634 C226.301172,411.334084 180.462929,379.295411 140.524074,339.501781" id="Fill-4" transform="translate(164.500000, 218.500000) scale(1, -1) translate(-164.500000, -218.500000) "></path>
                    <path d="M320.777521,471.877526 C245.5875,389.038875 202.253285,284.049301 197.024102,172.032727 C196.437871,159.456239 206.622662,149 219.175827,149 L272.647935,149 C284.360835,149 294.12354,158.139411 294.744945,169.869367 C299.391805,257.242452 333.178267,339.116997 391.406664,404.115768 C399.230897,412.851509 398.773636,426.235338 390.492143,434.539974 L352.684135,472.457557 C343.804685,481.357901 329.227068,481.189379 320.777521,471.877526" id="Fill-7" transform="translate(297.000000, 314.000000) scale(1, -1) translate(-297.000000, -314.000000) "></path>
                </g>
            </g>
        </g>
</svg>